HIERARCHY
ROOT Hips
{
	OFFSET 0.000000 89.005402 0.000000
	CHANNELS 6 Xposition Yposition Zposition Xrotation Yrotation Zrotation
	JOINT Spine
	{
		OFFSET 0.116900 10.681000 0.373400
		CHANNELS 3 Xrotation Yrotation Zrotation
		JOINT Spine1
		{
			OFFSET 0.000000 13.840401 0.053500
			CHANNELS 3 Xrotation Yrotation Zrotation
			JOINT Spine2
			{
				OFFSET 0.000000 14.712700 -0.366200
				CHANNELS 3 Xrotation Yrotation Zrotation
				JOINT Neck
				{
					OFFSET 0.000000 35.415497 -3.314200
					CHANNELS 3 Xrotation Yrotation Zrotation
					JOINT Head
					{
						OFFSET 0.000000 16.899200 1.218300
						CHANNELS 3 Xrotation Yrotation Zrotation
						JOINT HeadTop_End
						{
							OFFSET 0.000000 22.206207 2.192500
							CHANNELS 3 Xrotation Yrotation Zrotation
							End Site
							{
								OFFSET 0.000000 22.314178 0.000000
							}
						}
					}
				}
				JOINT LeftShoulder
				{
					OFFSET 12.896400 26.716293 -4.548400
					CHANNELS 3 Xrotation Yrotation Zrotation
					JOINT LeftArm
					{
						OFFSET 19.027000 -4.857010 -1.718400
						CHANNELS 3 Xrotation Yrotation Zrotation
						JOINT LeftForeArm
						{
							OFFSET 24.179897 0.000000 0.000000
							CHANNELS 3 Xrotation Yrotation Zrotation
							JOINT LeftHand
							{
								OFFSET 27.156403 0.000000 0.000000
								CHANNELS 3 Xrotation Yrotation Zrotation
								JOINT LeftHandIndex1
								{
									OFFSET 16.441200 0.000000 0.000000
									CHANNELS 3 Xrotation Yrotation Zrotation
									JOINT LeftHandIndex2
									{
										OFFSET 4.821899 0.000000 0.000000
										CHANNELS 3 Xrotation Yrotation Zrotation
										JOINT LeftHandIndex3
										{
											OFFSET 6.386497 0.000000 0.000000
											CHANNELS 3 Xrotation Yrotation Zrotation
											JOINT LeftHandIndex4
											{
												OFFSET 5.188988 0.000000 0.000000
												CHANNELS 3 Xrotation Yrotation Zrotation
												End Site
												{
													OFFSET -0.178703 5.185913 0.000177
												}
											}
										}
									}
								}
								JOINT LeftHandThumb1
								{
									OFFSET 6.534897 -5.032593 5.900300
									CHANNELS 3 Xrotation Yrotation Zrotation
									JOINT LeftHandThumb2
									{
										OFFSET 3.818176 -2.204422 2.204423
										CHANNELS 3 Xrotation Yrotation Zrotation
										JOINT LeftHandThumb3
										{
											OFFSET 3.252098 -1.877594 1.877601
											CHANNELS 3 Xrotation Yrotation Zrotation
											JOINT LeftHandThumb4
											{
												OFFSET 5.251778 -3.032120 3.032117
												CHANNELS 3 Xrotation Yrotation Zrotation
												End Site
												{
													OFFSET 0.000023 6.780014 0.000000
												}
											}
										}
									}
								}
							}
						}
					}
				}
				JOINT RightShoulder
				{
					OFFSET -12.896300 26.716293 -4.548400
					CHANNELS 3 Xrotation Yrotation Zrotation
					JOINT RightArm
					{
						OFFSET -19.027000 -4.857010 -1.718400
						CHANNELS 3 Xrotation Yrotation Zrotation
						JOINT RightForeArm
						{
							OFFSET -24.179897 0.000000 0.000000
							CHANNELS 3 Xrotation Yrotation Zrotation
							JOINT RightHand
							{
								OFFSET -27.156403 0.000000 0.000000
								CHANNELS 3 Xrotation Yrotation Zrotation
								JOINT RightHandThumb1
								{
									OFFSET -6.591202 -4.852203 5.988100
									CHANNELS 3 Xrotation Yrotation Zrotation
									JOINT RightHandThumb2
									{
										OFFSET -3.818176 -2.204422 2.204423
										CHANNELS 3 Xrotation Yrotation Zrotation
										JOINT RightHandThumb3
										{
											OFFSET -3.252098 -1.877594 1.877601
											CHANNELS 3 Xrotation Yrotation Zrotation
											JOINT RightHandThumb4
											{
												OFFSET -5.251778 -3.032120 3.032117
												CHANNELS 3 Xrotation Yrotation Zrotation
												End Site
												{
													OFFSET -0.000023 6.780014 0.000000
												}
											}
										}
									}
								}
								JOINT RightHandIndex1
								{
									OFFSET -16.029404 0.000000 0.000000
									CHANNELS 3 Xrotation Yrotation Zrotation
									JOINT RightHandIndex2
									{
										OFFSET -5.213303 0.000000 0.000000
										CHANNELS 3 Xrotation Yrotation Zrotation
										JOINT RightHandIndex3
										{
											OFFSET -6.386528 0.000000 0.000000
											CHANNELS 3 Xrotation Yrotation Zrotation
											JOINT RightHandIndex4
											{
												OFFSET -5.189026 0.000000 0.000000
												CHANNELS 3 Xrotation Yrotation Zrotation
												End Site
												{
													OFFSET 0.236702 5.183624 0.001972
												}
											}
										}
									}
								}
							}
						}
					}
				}
			}
		}
	}
	JOINT LeftUpLeg
	{
		OFFSET 14.073000 -7.904099 -1.463000
		CHANNELS 3 Xrotation Yrotation Zrotation
		JOINT LeftLeg
		{
			OFFSET -0.109806 -34.073280 4.093200
			CHANNELS 3 Xrotation Yrotation Zrotation
			JOINT LeftFoot
			{
				OFFSET 0.109806 -29.899420 -6.319000
				CHANNELS 3 Xrotation Yrotation Zrotation
				JOINT LeftToeBase
				{
					OFFSET 1.551100 -14.988700 20.535801
					CHANNELS 3 Xrotation Yrotation Zrotation
					JOINT LeftToe_End
					{
						OFFSET 0.221200 0.570800 13.248301
						CHANNELS 3 Xrotation Yrotation Zrotation
						End Site
						{
							OFFSET 0.000000 13.262435 0.000000
						}
					}
				}
			}
		}
	}
	JOINT RightUpLeg
	{
		OFFSET -13.839300 -7.904099 -1.463000
		CHANNELS 3 Xrotation Yrotation Zrotation
		JOINT RightLeg
		{
			OFFSET 0.109694 -34.073219 4.093300
			CHANNELS 3 Xrotation Yrotation Zrotation
			JOINT RightFoot
			{
				OFFSET -0.109694 -29.899384 -6.319200
				CHANNELS 3 Xrotation Yrotation Zrotation
				JOINT RightToeBase
				{
					OFFSET -1.551100 -14.988700 20.535801
					CHANNELS 3 Xrotation Yrotation Zrotation
					JOINT RightToe_End
					{
						OFFSET -0.221200 0.570900 13.248299
						CHANNELS 3 Xrotation Yrotation Zrotation
						End Site
						{
							OFFSET 0.000000 13.262440 0.000000
						}
					}
				}
			}
		}
	}
}
MOTION
Frames: 4
Frame Time: 0.033333
-0.935461 83.296104 8.948404 -2.020194 0.260781 9.693947 -0.375996 2.490685 -1.280243 0.013999 6.194748 -7.449829 -0.082594 6.136945 -7.492062 -1.906327 -0.261287 0.986620 2.770583 -1.731268 11.479943 -0.000000 -0.000001 -0.000000 0.232016 5.636620 -6.594528 -1.903994 -34.341973 18.105778 -0.000002 -17.747367 -0.000001 2.193967 -24.831936 14.467638 0.000000 0.000003 0.000000 0.000001 -0.000005 -0.000000 0.000035 -0.022834 0.189117 -0.000001 -0.000001 -0.000001 -1.540040 3.690178 6.142350 3.939054 7.948698 0.746818 -0.579464 1.575012 2.538722 0.000001 -0.000001 0.000002 0.150778 -8.351270 6.523051 6.598369 30.506128 58.728794 0.000008 100.592724 -0.000020 0.895632 23.238732 -40.462761 -1.849248 -3.581786 -6.586142 4.637192 -8.634138 -0.225404 -1.273749 0.137302 -2.094868 -0.000000 -0.000003 -0.000000 0.000000 0.000003 -0.000001 0.000005 0.000006 -0.000009 0.000037 0.023042 -0.189081 -0.000000 0.000003 0.000000 -21.299451 7.007490 -16.640535 51.392444 7.373211 1.085964 -0.189691 -1.062125 9.572718 -35.086979 0.000002 -0.000002 0.000001 0.000000 -0.000000 -45.163950 7.730108 -0.669221 76.589677 -10.215271 -0.645785 42.178088 -6.888085 -9.561262 -39.446559 -12.846509 16.268252 -0.000001 -0.000000 -0.000000 
-1.454215 83.599785 8.853234 -3.514896 5.712063 9.833891 0.172290 1.856611 -1.520751 0.734256 4.327204 -7.850860 0.669398 4.313079 -7.865992 -1.917374 -0.408864 1.306004 2.576428 -2.198586 12.637365 -0.000000 0.000000 0.000000 0.255702 6.256024 -7.911252 -5.515668 -43.291276 14.593934 -0.000005 -15.262719 0.000001 0.670230 -24.440078 17.870912 0.000001 0.000006 0.000002 0.000001 -0.000004 0.000003 0.000037 -0.022835 0.189122 -0.000001 0.000004 0.000003 -1.540040 3.690175 6.142353 3.939055 7.948697 0.746821 -0.579463 1.575016 2.538719 -0.000000 -0.000001 -0.000000 0.164676 -6.899592 5.874208 16.406406 29.432453 58.251460 0.001338 92.642329 -0.001396 7.487300 21.537651 -45.751817 -1.849247 -3.581785 -6.586144 4.637193 -8.634134 -0.225405 -1.273746 0.137305 -2.094868 -0.000001 -0.000001 0.000000 0.000000 0.000001 -0.000001 0.000005 0.000001 -0.000007 0.000037 0.023042 -0.189082 0.000001 -0.000001 0.000001 -20.148368 6.922143 -16.374796 51.234171 5.664331 1.179954 1.207504 -0.930908 10.279745 -35.916878 -0.000000 0.000003 0.000000 0.000000 -0.000001 -45.184048 7.018925 -2.520064 70.388590 -10.268619 -0.643800 40.551998 -6.002652 -11.694027 -46.493583 -17.583398 16.938903 -0.000001 0.000000 0.000000 
-1.986888 83.906021 8.954887 -5.488712 14.804461 10.276241 0.643232 0.651451 -2.150592 1.287920 1.166715 -8.004385 1.271810 1.186161 -8.010680 -1.908851 -0.671720 1.774560 2.313114 -3.009064 13.596864 0.000000 0.000001 0.000001 0.290468 6.858333 -9.201361 -12.637003 -54.347996 3.794046 0.000002 -16.512170 0.000003 0.258882 -24.003544 22.719245 0.000001 0.000002 0.000001 0.000002 -0.000003 -0.000000 0.000036 -0.022834 0.189126 -0.000002 -0.000000 0.000003 -1.540039 3.690174 6.142349 3.939049 7.948692 0.746823 -0.579463 1.575016 2.538720 -0.000003 -0.000002 0.000002 0.175043 -5.504155 5.003767 27.476494 25.770623 55.727394 -0.000158 78.097387 0.000157 18.605116 17.313360 -47.858582 -1.849249 -3.581788 -6.586141 4.637192 -8.634131 -0.225404 -1.273752 0.137302 -2.094869 0.000001 -0.000000 0.000000 -0.000002 -0.000000 -0.000000 0.000001 0.000002 -0.000007 0.000037 0.023042 -0.189081 -0.000001 -0.000002 -0.000000 -18.815373 6.915281 -15.559094 51.610450 3.720974 1.211031 2.058987 -0.705331 11.682483 -37.267647 -0.000004 -0.000002 -0.000000 0.000000 -0.000000 -45.814662 5.645172 -6.437329 65.411485 -10.006718 -1.004163 29.618808 -4.463593 -11.663124 -31.218315 -10.540187 16.886171 -0.000000 0.000000 -0.000000 
-2.369335 83.792511 9.294188 -7.970680 27.573195 10.984850 0.772000 -1.156839 -2.978018 1.301896 -3.132549 -7.893517 1.316751 -3.112591 -7.898821 -1.733670 -1.126508 2.678593 1.882714 -4.129946 13.931112 -0.000000 0.000002 0.000000 0.337342 6.998936 -9.848580 -36.813446 -63.015639 -26.355142 0.000004 -25.179352 0.000010 2.896354 -23.065161 28.596923 0.000000 0.000002 0.000006 -0.000001 -0.000004 0.000000 0.000033 -0.022834 0.189119 0.000000 0.000000 -0.000000 -1.540040 3.690176 6.142352 3.939053 7.948696 0.746818 -0.579462 1.575014 2.538719 0.000000 -0.000001 -0.000002 0.181972 -5.064605 4.437465 40.920480 21.668271 49.815592 -0.000010 55.315011 0.000031 30.271204 14.987211 -46.651893 -1.849249 -3.581789 -6.586143 4.637192 -8.634133 -0.225404 -1.273750 0.137301 -2.094869 0.000000 0.000000 0.000001 -0.000001 0.000000 0.000001 0.000004 0.000002 -0.000008 0.000037 0.023041 -0.189082 -0.000000 -0.000000 0.000000 -18.863353 7.262311 -13.394412 54.402382 1.848383 1.195324 2.427726 -0.393975 13.142367 -38.893344 0.000006 0.000003 0.000000 -0.000001 -0.000000 -42.574085 4.592788 -9.807855 56.268816 -11.092376 -1.268812 18.318835 -3.429167 -14.968894 -16.365956 -1.561574 10.702385 0.000000 -0.000001 0.000000 
